<?xml version="1.0" standalone="no"?>
<!DOCTYPE svg PUBLIC "-//W3C//DTD SVG 20010904//EN"
 "http://www.w3.org/TR/2001/REC-SVG-20010904/DTD/svg10.dtd">
<svg version="1.0" xmlns="http://www.w3.org/2000/svg"
 width="200.000000pt" height="200.000000pt" viewBox="0 0 200.000000 200.000000"
 preserveAspectRatio="xMidYMid meet">
<metadata>
Created by potrace 1.16, written by Peter Selinger 2001-2019
</metadata>
<g transform="translate(0.000000,200.000000) scale(0.100000,-0.100000)"
fill="#000000" stroke="none">
<path d="M1754 1912 c-13 -8 -136 -233 -220 -403 -54 -109 -56 -118 -41 -134
22 -22 22 -68 0 -87 -10 -9 -85 -41 -168 -71 -82 -30 -162 -60 -176 -65 l-26
-11 13 -52 c8 -30 14 -81 14 -115 l0 -62 78 -21 c83 -22 108 -42 92 -72 -6
-10 -43 -46 -83 -81 -41 -35 -79 -76 -86 -93 -6 -16 -41 -110 -77 -208 -62
-170 -64 -180 -49 -203 15 -23 19 -24 153 -24 96 0 143 4 154 13 9 7 31 77 53
172 104 443 264 894 474 1339 63 133 69 154 49 174 -13 13 -136 17 -154 4z"/>
<path d="M960 1611 c-99 -32 -148 -91 -168 -201 -7 -37 -26 -78 -56 -124 -114
-174 -160 -453 -96 -589 27 -58 87 -111 148 -131 94 -33 172 -15 294 67 108
72 234 188 226 208 -5 12 -101 46 -151 53 -5 0 -15 -23 -23 -52 -8 -30 -19
-61 -25 -70 -8 -14 -9 -12 -4 8 32 133 37 176 27 245 -11 86 -27 121 -65 149
-56 42 -197 13 -292 -60 -25 -19 -45 -29 -45 -24 0 16 102 79 163 100 78 28
135 26 181 -5 20 -14 41 -25 46 -25 26 0 347 124 365 141 15 15 17 24 9 46
-15 43 -48 40 -215 -22 -84 -31 -157 -54 -163 -52 -6 2 12 11 41 21 60 20 73
44 73 135 0 69 -29 118 -93 155 -46 27 -135 41 -177 27z"/>
<path d="M646 628 c-3 -7 -12 -38 -22 -68 -24 -78 -64 -155 -118 -226 -109
-146 -189 -186 -322 -164 -85 15 -104 10 -104 -25 0 -21 8 -29 37 -41 90 -38
228 -25 308 28 89 59 204 212 256 338 43 107 43 112 4 143 -25 20 -36 24 -39
15z"/>
</g>
</svg>
